<svg width="100" height="100" viewBox="0 0 100 100" fill="none" xmlns="http://www.w3.org/2000/svg">
  <circle cx="50" cy="50" r="47" stroke="#8A9E7A" stroke-width="1" fill="none" opacity="0.5"/>
  <circle cx="50" cy="50" r="41" stroke="#8A9E7A" stroke-width="0.5" fill="none" opacity="0.3"/>
  <g opacity="0.85">
    <path d="M 18 52 Q 26 44 34 50" stroke="#8A9E7A" stroke-width="1.2" fill="none" stroke-linecap="round"/>
    <ellipse cx="23" cy="46" rx="4" ry="2.2" transform="rotate(-30 23 46)" fill="#8A9E7A" opacity="0.7"/>
    <ellipse cx="30" cy="43" rx="3.5" ry="2" transform="rotate(-10 30 43)" fill="#8A9E7A" opacity="0.6"/>
    <ellipse cx="20" cy="51" rx="3" ry="1.8" transform="rotate(-50 20 51)" fill="#5a6e4e" opacity="0.4"/>
  </g>
  <g opacity="0.85">
    <path d="M 82 52 Q 74 44 66 50" stroke="#8A9E7A" stroke-width="1.2" fill="none" stroke-linecap="round"/>
    <ellipse cx="77" cy="46" rx="4" ry="2.2" transform="rotate(30 77 46)" fill="#8A9E7A" opacity="0.7"/>
    <ellipse cx="70" cy="43" rx="3.5" ry="2" transform="rotate(10 70 43)" fill="#8A9E7A" opacity="0.6"/>
    <ellipse cx="80" cy="51" rx="3" ry="1.8" transform="rotate(50 80 51)" fill="#5a6e4e" opacity="0.4"/>
  </g>
  <circle cx="50" cy="14" r="1.5" fill="#D4956A" opacity="0.8"/>
  <circle cx="44" cy="16" r="1" fill="#D4956A" opacity="0.5"/>
  <circle cx="56" cy="16" r="1" fill="#D4956A" opacity="0.5"/>
  <circle cx="50" cy="86" r="1.5" fill="#D4956A" opacity="0.8"/>
  <circle cx="44" cy="84" r="1" fill="#D4956A" opacity="0.5"/>
  <circle cx="56" cy="84" r="1" fill="#D4956A" opacity="0.5"/>
  <text x="32" y="56" font-family="Georgia, serif" font-size="28" font-weight="400" fill="#3a3a3a" text-anchor="middle" font-style="italic">S</text>
  <text x="68" y="56" font-family="Georgia, serif" font-size="28" font-weight="400" fill="#D4956A" text-anchor="middle" font-style="italic">S</text>
  <circle cx="50" cy="47" r="1.5" fill="#D4956A" opacity="0.9"/>
  <text x="50" y="73" font-family="sans-serif" font-size="6" font-weight="500" fill="#8A9E7A" text-anchor="middle" letter-spacing="3">CELEBRANT</text>
  <line x1="15" y1="68" x2="32" y2="68" stroke="#8A9E7A" stroke-width="0.5" opacity="0.6"/>
  <line x1="68" y1="68" x2="85" y2="68" stroke="#8A9E7A" stroke-width="0.5" opacity="0.6"/>
</svg>
